<?xml version="1.0" standalone="no"?><svg xmlns="http://www.w3.org/2000/svg" viewBox="0 0 1440 320"><path fill="#ffffff" fill-opacity="1" d="M0,192L26.7,181.3C53.3,171,107,149,160,160C213.3,171,267,213,320,218.7C373.3,224,427,192,480,176C533.3,160,587,160,640,176C693.3,192,747,224,800,218.7C853.3,213,907,171,960,138.7C1013.3,107,1067,85,1120,96C1173.3,107,1227,149,1280,160C1333.3,171,1387,149,1413,138.7L1440,128L1440,320L1413.3,320C1386.7,320,1333,320,1280,320C1226.7,320,1173,320,1120,320C1066.7,320,1013,320,960,320C906.7,320,853,320,800,320C746.7,320,693,320,640,320C586.7,320,533,320,480,320C426.7,320,373,320,320,320C266.7,320,213,320,160,320C106.7,320,53,320,27,320L0,320Z"></path></svg>